<svg width="50" height="50" fill="none" xmlns="http://www.w3.org/2000/svg"><g filter="url(#a)" stroke="#4C4CFF" stroke-linecap="round" stroke-linejoin="round"><path d="M40.513 37.633c.5-.613.05-1.493-.743-1.506-10.106-.167-18.558.02-29.012.656-.79.048-1.203.948-.675 1.539A19.956 19.956 0 0 0 25.003 45c6.256 0 11.842-2.87 15.51-7.367ZM7.643 15.058c-.39.68.184 1.471.963 1.378 11.567-1.388 20.092-1.802 32.182-1.066.787.048 1.316-.783.88-1.439C38.083 8.548 31.958 5 25.004 5c-7.428 0-13.91 4.048-17.361 10.058Z"/></g><g filter="url(#b)" stroke="#4C4CFF" stroke-linecap="round" stroke-linejoin="round"><path d="M40.513 37.633c.5-.613.05-1.493-.743-1.506-10.106-.167-18.558.02-29.012.656-.79.048-1.203.948-.675 1.539A19.956 19.956 0 0 0 25.003 45c6.256 0 11.842-2.87 15.51-7.367ZM7.643 15.058c-.39.68.184 1.471.963 1.378 11.567-1.388 20.092-1.802 32.182-1.066.787.048 1.316-.783.88-1.439C38.083 8.548 31.958 5 25.004 5c-7.428 0-13.91 4.048-17.361 10.058Z"/></g><path d="M40.513 37.633c.5-.613.05-1.493-.743-1.506-10.106-.167-18.558.02-29.012.656-.79.048-1.203.948-.675 1.539A19.956 19.956 0 0 0 25.003 45c6.256 0 11.842-2.87 15.51-7.367ZM7.643 15.058c-.39.68.184 1.471.963 1.378 11.567-1.388 20.092-1.802 32.182-1.066.787.048 1.316-.783.88-1.439C38.083 8.548 31.958 5 25.004 5c-7.428 0-13.91 4.048-17.361 10.058Z" stroke="#4C4CFF" stroke-linecap="round" stroke-linejoin="round"/><path d="M40.513 37.633c.5-.613.05-1.493-.743-1.506-10.106-.167-18.558.02-29.012.656-.79.048-1.203.948-.675 1.539A19.956 19.956 0 0 0 25.003 45c6.256 0 11.842-2.87 15.51-7.367ZM7.643 15.058c-.39.68.184 1.471.963 1.378 11.567-1.388 20.092-1.802 32.182-1.066.787.048 1.316-.783.88-1.439C38.083 8.548 31.958 5 25.004 5c-7.428 0-13.91 4.048-17.361 10.058Z" stroke="#fff" stroke-width=".5" stroke-linecap="round" stroke-linejoin="round"/><g filter="url(#c)"><path d="M44.86 27.466c.128-1.053-.688-1.954-1.745-2.04-12.88-1.038-22.93-1.2-36.225-.502-1.06.056-1.9.936-1.8 1.992.14 1.498.447 2.95.901 4.334.262.797 1.04 1.29 1.88 1.262 12.512-.434 22.19-.465 34.325-.137.84.022 1.615-.477 1.87-1.277.372-1.168.64-2.383.793-3.632Z" stroke="#E33CD5" stroke-linecap="round" stroke-linejoin="round"/></g><g filter="url(#d)"><path d="M44.86 27.466c.128-1.053-.688-1.954-1.745-2.04-12.88-1.038-22.93-1.2-36.225-.502-1.06.056-1.9.936-1.8 1.992.14 1.498.447 2.95.901 4.334.262.797 1.04 1.29 1.88 1.262 12.512-.434 22.19-.465 34.325-.137.84.022 1.615-.477 1.87-1.277.372-1.168.64-2.383.793-3.632Z" stroke="#E33CD5" stroke-linecap="round" stroke-linejoin="round"/></g><path d="M44.86 27.466c.128-1.053-.688-1.954-1.745-2.04-12.88-1.038-22.93-1.2-36.225-.502-1.06.056-1.9.936-1.8 1.992.14 1.498.447 2.95.901 4.334.262.797 1.04 1.29 1.88 1.262 12.512-.434 22.19-.465 34.325-.137.84.022 1.615-.477 1.87-1.277.372-1.168.64-2.383.793-3.632Z" stroke="#E33CD5" stroke-linecap="round" stroke-linejoin="round"/><path d="M44.86 27.466c.128-1.053-.688-1.954-1.745-2.04-12.88-1.038-22.93-1.2-36.225-.502-1.06.056-1.9.936-1.8 1.992.14 1.498.447 2.95.901 4.334.262.797 1.04 1.29 1.88 1.262 12.512-.434 22.19-.465 34.325-.137.84.022 1.615-.477 1.87-1.277.372-1.168.64-2.383.793-3.632Z" stroke="#fff" stroke-width=".5" stroke-linecap="round" stroke-linejoin="round"/><g filter="url(#e)"><path d="M5 20.5c2.667-2 5.333-2 8 0s5.333 2 8 0 5.333-2 8 0 5.333 2 8 0 5.333-2 8 0" stroke="#0CC" stroke-linecap="round" stroke-linejoin="round"/></g><g filter="url(#f)"><path d="M5 20.5c2.667-2 5.333-2 8 0s5.333 2 8 0 5.333-2 8 0 5.333 2 8 0 5.333-2 8 0" stroke="#0CC" stroke-linecap="round" stroke-linejoin="round"/></g><path d="M5 20.5c2.667-2 5.333-2 8 0s5.333 2 8 0 5.333-2 8 0 5.333 2 8 0 5.333-2 8 0" stroke="#0CC" stroke-linecap="round" stroke-linejoin="round"/><path d="M5 20.5c2.667-2 5.333-2 8 0s5.333 2 8 0 5.333-2 8 0 5.333 2 8 0 5.333-2 8 0" stroke="#fff" stroke-width=".5" stroke-linecap="round" stroke-linejoin="round"/><g filter="url(#g)" stroke="#4C4CFF"><ellipse cx="1" cy=".75" rx="1" ry=".75" transform="scale(1 -1) rotate(-27.688 -73.023 -54.582)"/><ellipse cx="33.708" cy="11.354" rx="1.5" ry="1" transform="rotate(15 33.708 11.354)"/><ellipse cx="1" cy=".75" rx="1" ry=".75" transform="scale(1 -1) rotate(15 170.78 94.927)"/><ellipse cx="23.5" cy="12" rx="1.5" ry="1" transform="rotate(180 23.5 12)"/><ellipse cx="27.708" cy="8.354" rx="1.5" ry="1" transform="rotate(15 27.708 8.354)"/><ellipse cx="1" cy=".75" rx="1" ry=".75" transform="matrix(1 0 0 -1 24 42.5)"/><ellipse cx="16.793" cy="10.583" rx="1.5" ry="1" transform="rotate(-27.688 16.793 10.583)"/></g><g filter="url(#h)" stroke="#4C4CFF"><ellipse cx="1" cy=".75" rx="1" ry=".75" transform="scale(1 -1) rotate(-27.688 -73.023 -54.582)"/><ellipse cx="33.708" cy="11.354" rx="1.5" ry="1" transform="rotate(15 33.708 11.354)"/><ellipse cx="1" cy=".75" rx="1" ry=".75" transform="scale(1 -1) rotate(15 170.78 94.927)"/><ellipse cx="23.5" cy="12" rx="1.5" ry="1" transform="rotate(180 23.5 12)"/><ellipse cx="27.708" cy="8.354" rx="1.5" ry="1" transform="rotate(15 27.708 8.354)"/><ellipse cx="1" cy=".75" rx="1" ry=".75" transform="matrix(1 0 0 -1 24 42.5)"/><ellipse cx="16.793" cy="10.583" rx="1.5" ry="1" transform="rotate(-27.688 16.793 10.583)"/></g><ellipse cx="1" cy=".75" rx="1" ry=".75" transform="scale(1 -1) rotate(-27.688 -73.023 -54.582)" stroke="#4C4CFF"/><ellipse cx="33.708" cy="11.354" rx="1.5" ry="1" transform="rotate(15 33.708 11.354)" stroke="#4C4CFF"/><ellipse cx="1" cy=".75" rx="1" ry=".75" transform="scale(1 -1) rotate(15 170.78 94.927)" stroke="#4C4CFF"/><ellipse cx="23.5" cy="12" rx="1.5" ry="1" transform="rotate(180 23.5 12)" stroke="#4C4CFF"/><ellipse cx="27.708" cy="8.354" rx="1.5" ry="1" transform="rotate(15 27.708 8.354)" stroke="#4C4CFF"/><ellipse cx="1" cy=".75" rx="1" ry=".75" transform="matrix(1 0 0 -1 24 42.5)" stroke="#4C4CFF"/><ellipse cx="16.793" cy="10.583" rx="1.5" ry="1" transform="rotate(-27.688 16.793 10.583)" stroke="#4C4CFF"/><ellipse cx="1" cy=".75" rx="1" ry=".75" transform="scale(1 -1) rotate(-27.688 -73.023 -54.582)" stroke="#fff" stroke-width=".5"/><ellipse cx="33.708" cy="11.354" rx="1.5" ry="1" transform="rotate(15 33.708 11.354)" stroke="#fff" stroke-width=".5"/><ellipse cx="1" cy=".75" rx="1" ry=".75" transform="scale(1 -1) rotate(15 170.78 94.927)" stroke="#fff" stroke-width=".5"/><ellipse cx="23.5" cy="12" rx="1.5" ry="1" transform="rotate(180 23.5 12)" stroke="#fff" stroke-width=".5"/><ellipse cx="27.708" cy="8.354" rx="1.5" ry="1" transform="rotate(15 27.708 8.354)" stroke="#fff" stroke-width=".5"/><ellipse cx="1" cy=".75" rx="1" ry=".75" transform="matrix(1 0 0 -1 24 42.5)" stroke="#fff" stroke-width=".5"/><ellipse cx="16.793" cy="10.583" rx="1.5" ry="1" transform="rotate(-27.688 16.793 10.583)" stroke="#fff" stroke-width=".5"/><defs><filter id="a" x="3.012" y=".5" width="43.319" height="49" filterUnits="userSpaceOnUse" color-interpolation-filters="sRGB"><feFlood flood-opacity="0" result="BackgroundImageFix"/><feBlend in="SourceGraphic" in2="BackgroundImageFix" result="shape"/><feGaussianBlur stdDeviation="2" result="effect1_foregroundBlur_153638_396"/></filter><filter id="b" x="3.012" y=".5" width="43.319" height="49" filterUnits="userSpaceOnUse" color-interpolation-filters="sRGB"><feFlood flood-opacity="0" result="BackgroundImageFix"/><feBlend in="SourceGraphic" in2="BackgroundImageFix" result="shape"/><feGaussianBlur stdDeviation="2" result="effect1_foregroundBlur_153638_396"/></filter><filter id="c" x=".581" y="20" width="48.792" height="17.013" filterUnits="userSpaceOnUse" color-interpolation-filters="sRGB"><feFlood flood-opacity="0" result="BackgroundImageFix"/><feBlend in="SourceGraphic" in2="BackgroundImageFix" result="shape"/><feGaussianBlur stdDeviation="2" result="effect1_foregroundBlur_153638_396"/></filter><filter id="d" x=".581" y="20" width="48.792" height="17.013" filterUnits="userSpaceOnUse" color-interpolation-filters="sRGB"><feFlood flood-opacity="0" result="BackgroundImageFix"/><feBlend in="SourceGraphic" in2="BackgroundImageFix" result="shape"/><feGaussianBlur stdDeviation="2" result="effect1_foregroundBlur_153638_396"/></filter><filter id="e" x=".5" y="14.5" width="49" height="12" filterUnits="userSpaceOnUse" color-interpolation-filters="sRGB"><feFlood flood-opacity="0" result="BackgroundImageFix"/><feBlend in="SourceGraphic" in2="BackgroundImageFix" result="shape"/><feGaussianBlur stdDeviation="2" result="effect1_foregroundBlur_153638_396"/></filter><filter id="f" x=".5" y="14.5" width="49" height="12" filterUnits="userSpaceOnUse" color-interpolation-filters="sRGB"><feFlood flood-opacity="0" result="BackgroundImageFix"/><feBlend in="SourceGraphic" in2="BackgroundImageFix" result="shape"/><feGaussianBlur stdDeviation="2" result="effect1_foregroundBlur_153638_396"/></filter><filter id="g" x="10.885" y="2.813" width="28.795" height="44.187" filterUnits="userSpaceOnUse" color-interpolation-filters="sRGB"><feFlood flood-opacity="0" result="BackgroundImageFix"/><feBlend in="SourceGraphic" in2="BackgroundImageFix" result="shape"/><feGaussianBlur stdDeviation="2" result="effect1_foregroundBlur_153638_396"/></filter><filter id="h" x="10.885" y="2.813" width="28.795" height="44.187" filterUnits="userSpaceOnUse" color-interpolation-filters="sRGB"><feFlood flood-opacity="0" result="BackgroundImageFix"/><feBlend in="SourceGraphic" in2="BackgroundImageFix" result="shape"/><feGaussianBlur stdDeviation="2" result="effect1_foregroundBlur_153638_396"/></filter></defs></svg>